<svg width="300" height="300" viewBox="0 0 300 300" fill="none" xmlns="http://www.w3.org/2000/svg">
<rect width="300" height="300"/>
<rect width="20" height="20" transform="translate(110 50)" fill="#C93E2C"/>
<rect width="20" height="20" transform="translate(130 50)" fill="#C93E2C"/>
<rect width="20" height="20" transform="translate(170 50)" fill="#C93E2C"/>
<rect width="20" height="20" transform="translate(130 70)" fill="#C93E2C"/>
<rect width="20" height="20" transform="translate(170 70)" fill="#C93E2C"/>
<rect width="20" height="20" transform="translate(150 50)" fill="#C93E2C"/>
<rect width="20" height="20" transform="translate(110 70)" fill="#C93E2C"/>
<rect width="20" height="20" transform="translate(110 90)" fill="#C93E2C"/>
<rect width="20" height="20" transform="translate(110 110)" fill="#C93E2C"/>
<rect width="20" height="20" transform="translate(110 130)" fill="#C93E2C"/>
<rect width="20" height="20" transform="translate(130 90)" fill="#C93E2C"/>
<rect width="20" height="20" transform="translate(170 90)" fill="#C93E2C"/>
<rect width="20" height="20" transform="translate(130 110)" fill="#C93E2C"/>
<rect width="20" height="20" transform="translate(170 110)" fill="#C93E2C"/>
<rect width="20" height="20" transform="translate(130 130)" fill="#C93E2C"/>
<rect width="20" height="20" transform="translate(170 130)" fill="#C93E2C"/>
<rect width="20" height="20" transform="translate(150 70)" fill="#C93E2C"/>
<rect width="20" height="20" transform="translate(150 90)" fill="#C93E2C"/>
<rect width="20" height="20" transform="translate(150 110)" fill="#C93E2C"/>
<rect width="20" height="20" transform="translate(150 130)" fill="#C93E2C"/>
<rect width="20" height="20" transform="translate(90 130)" fill="#CE842E"/>
<rect width="20" height="20" transform="translate(90 110)" fill="#CE842E"/>
<rect width="20" height="20" transform="translate(90 90)" fill="#CE842E"/>
<rect width="20" height="20" transform="translate(90 70)" fill="#CE842E"/>
<rect width="20" height="20" transform="translate(90 50)" fill="#CE842E"/>
<rect width="20" height="20" transform="translate(50 250)" fill="#A6B4BA"/>
<rect width="20" height="20" transform="translate(50 230)" fill="#A6B4BA"/>
<rect width="20" height="20" transform="translate(70 250)" fill="#A6B4BA"/>
<rect width="20" height="20" transform="translate(90 250)" fill="#A6B4BA"/>
<rect width="20" height="20" transform="translate(110 250)" fill="#A6B4BA"/>
<rect width="20" height="20" transform="translate(110 230)" fill="#A6B4BA"/>
<rect width="20" height="20" transform="translate(130 230)" fill="#A6B4BA"/>
<rect width="20" height="20" transform="translate(130 250)" fill="#A6B4BA"/>
<rect width="20" height="20" transform="translate(150 250)" fill="#A6B4BA"/>
<rect width="20" height="20" transform="translate(150 230)" fill="#A6B4BA"/>
<rect width="20" height="20" transform="translate(90 230)" fill="#6E5134"/>
<rect width="20" height="20" transform="translate(90 190)" fill="#6E5134"/>
<rect width="20" height="20" transform="translate(90 210)" fill="#6E5134"/>
<rect width="20" height="20" transform="translate(90 170)" fill="#6E5134"/>
<rect width="20" height="20" transform="translate(90 150)" fill="#6E5134"/>
<rect width="20" height="20" transform="translate(70 230)" fill="#1B2E37"/>
<rect width="20" height="20" transform="translate(70 190)" fill="#1B2E37"/>
<rect width="20" height="20" transform="translate(70 150)" fill="#1B2E37"/>
<rect width="20" height="20" transform="translate(70 110)" fill="#1B2E37"/>
<rect width="20" height="20" transform="translate(70 210)" fill="#1B2E37"/>
<rect width="20" height="20" transform="translate(70 170)" fill="#1B2E37"/>
<rect width="20" height="20" transform="translate(70 130)" fill="#1B2E37"/>
<rect width="20" height="20" transform="translate(70 90)" fill="#1B2E37"/>
<rect width="20" height="20" transform="translate(70 70)" fill="#1B2E37"/>
<rect width="20" height="20" transform="translate(70 50)" fill="#1B2E37"/>
<rect width="20" height="20" transform="translate(70 30)" fill="#1B2E37"/>
<rect width="20" height="20" transform="translate(90 30)" fill="#1B2E37"/>
<rect width="20" height="20" transform="translate(190 70)" fill="#AF2A28"/>
<rect width="20" height="20" transform="translate(190 90)" fill="#AF2A28"/>
<rect width="20" height="20" transform="translate(190 110)" fill="#AF2A28"/>
<rect width="20" height="20" transform="translate(190 130)" fill="#AF2A28"/>
<rect width="20" height="20" transform="translate(190 150)" fill="#AF2A28"/>
<rect width="20" height="20" transform="translate(210 70)" fill="#AF2A28"/>
<rect width="20" height="20" transform="translate(210 90)" fill="#AF2A28"/>
<rect width="20" height="20" transform="translate(210 110)" fill="#AF2A28"/>
<rect width="20" height="20" transform="translate(210 130)" fill="#AF2A28"/>
<rect width="20" height="20" transform="translate(210 150)" fill="#AF2A28"/>
<rect width="20" height="20" transform="translate(230 70)" fill="#AF2A28"/>
<rect width="20" height="20" transform="translate(230 90)" fill="#AF2A28"/>
<rect width="20" height="20" transform="translate(230 110)" fill="#AF2A28"/>
<rect width="20" height="20" transform="translate(230 130)" fill="#AF2A28"/>
<rect width="20" height="20" transform="translate(230 150)" fill="#AF2A28"/>
<rect width="20" height="20" transform="translate(170 150)" fill="#6B2228"/>
</svg>
